<?xml version="1.0" encoding="iso-8859-1"?>
<!-- Generator: Adobe Illustrator 16.0.0, SVG Export Plug-In . SVG Version: 6.00 Build 0)  -->
<!DOCTYPE svg PUBLIC "-//W3C//DTD SVG 1.1//EN" "http://www.w3.org/Graphics/SVG/1.1/DTD/svg11.dtd">
<svg version="1.1" id="Capa_1" xmlns="http://www.w3.org/2000/svg" xmlns:xlink="http://www.w3.org/1999/xlink" x="0px" y="0px"
	 width="932.4px" height="932.4px" viewBox="0 0 932.4 932.4" style="enable-background:new 0 0 932.4 932.4;" xml:space="preserve"
	>
<g>
	<g>
		<path d="M48.1,233.9h33.4v37.6c0,16.6,13.4,30,30,30h354.7H820.9c16.6,0,30-13.4,30-30v-37.6h33.4c16.6,0,30-13.4,30-30v-48.5
			c0-13.2-8.701-24.9-21.301-28.7L479.199,1.9C475,0.6,470.6,0,466.2,0c-4.399,0-8.7,0.6-13,1.9L39.4,126.7
			c-12.7,3.8-21.3,15.5-21.3,28.7v48.5C18.1,220.4,31.5,233.9,48.1,233.9z"/>
		<path d="M885.4,831.6h-34.5V794c0-16.6-13.4-30-30-30h-39.6V331.6H666.699V764H519.6V331.6H412.8V764H265.7V331.6H151.1V764h-39.6
			c-16.6,0-30,13.4-30,30v37.6H47c-16.6,0-30,13.4-30,30V902.4c0,16.6,13.4,30,30,30h838.4c16.6,0,30-13.4,30-30V861.6
			C915.4,845,902,831.6,885.4,831.6z"/>
	</g>
</g>
<g>
</g>
<g>
</g>
<g>
</g>
<g>
</g>
<g>
</g>
<g>
</g>
<g>
</g>
<g>
</g>
<g>
</g>
<g>
</g>
<g>
</g>
<g>
</g>
<g>
</g>
<g>
</g>
<g>
</g>
</svg>
